<?xml version="1.0" encoding="UTF-8" standalone="no"?>
<!DOCTYPE svg PUBLIC "-//W3C//DTD SVG 1.1//EN" "http://www.w3.org/Graphics/SVG/1.1/DTD/svg11.dtd">
<svg version="1.1" xmlns="http://www.w3.org/2000/svg" xmlns:xlink="http://www.w3.org/1999/xlink" preserveAspectRatio="xMidYMid meet" viewBox="0 0 640 640" width="640" height="640"><defs><path d="M-94.78 -40L677.19 -40L677.19 664.17L-94.78 664.17L-94.78 -40Z" id="b2dmMFYsl5"></path><path d="M519.93 205.98C527.93 205.98 534.41 212.46 534.41 220.46C534.41 238.32 534.41 327.63 534.41 488.39L114.41 488.39C114.41 327.63 114.41 238.32 114.41 220.46C114.41 212.46 120.9 205.98 128.89 205.98C207.1 205.98 480.83 205.98 519.93 205.98Z" id="cvykUj0KJ"></path><path d="M114.41 488.39L534.41 488.39C534.41 523.14 534.41 542.45 534.41 546.32C534.41 554.31 527.93 560.8 519.93 560.8C480.83 560.8 168 560.8 128.89 560.8C120.9 560.8 114.41 554.31 114.41 546.32C114.41 538.59 114.41 519.28 114.41 488.39Z" id="avWdPVTmG"></path><path d="M273.72 560.8L375.1 560.8L375.1 625.97L273.72 625.97L273.72 560.8Z" id="anF7fqr6H"></path><path d="M215.79 618.73L433.03 618.73L433.03 633.21L215.79 633.21L215.79 618.73Z" id="c1yx1owdEE"></path><path d="M423.26 611.41C428.76 611.41 433.21 615.87 433.21 621.37C433.21 623.36 433.21 619.38 433.21 621.37C433.21 626.86 428.76 631.32 423.26 631.32C381.8 631.32 267.38 631.32 225.92 631.32C220.42 631.32 215.97 626.86 215.97 621.37C215.97 619.38 215.97 623.36 215.97 621.37C215.97 615.87 220.42 611.41 225.92 611.41C267.38 611.41 381.8 611.41 423.26 611.41Z" id="cEoS8jzgt"></path><path d="M359.33 311.87L397.46 334.3L359.33 356.73L321.2 378.95L283.06 356.73L244.93 334.3L283.06 311.87L321.2 289.44L359.33 311.87Z" id="a4aecl6jw5"></path><path d="M321.2 289.44L283.06 311.87L244.93 334.3L206.8 311.87L244.93 289.44L283.06 267.21L321.2 289.44Z" id="c4twDy0S9"></path><path d="M321.2 289.44L359.33 311.87L397.46 334.3L435.59 311.87L397.46 289.44L359.33 267.21L321.2 289.44Z" id="an2kqRysf"></path><path d="M244.93 334.3L283.06 356.73L295.3 363.86L321.2 348.77L321.2 289.44L283.06 311.87L244.93 334.3Z" id="aZPX5PYtP"></path><path d="M321.2 348.77L347.09 363.86L359.33 356.73L397.46 334.3L359.33 311.87L321.2 289.44L321.2 348.77Z" id="crgTOzoS0"></path><path d="M320.79 466.22L396.44 422.38L396.44 379.56L359.33 401.38L321.2 378.95L320.79 378.75L320.79 466.22Z" id="aJoJHhmaH"></path><path d="M321.2 378.95L283.06 356.73L244.93 334.3L206.8 356.73L244.93 378.95L283.06 401.38L321.2 378.95Z" id="b16NdhdPfs"></path><path d="M320.79 466.22L244.93 422.38L244.93 378.95L283.06 401.38L320.79 379.36L320.79 466.22Z" id="c2WokGybHk"></path><path d="M321.2 378.95L359.33 356.73L397.46 334.3L435.59 356.73L397.46 378.95L359.33 401.38L321.2 378.95Z" id="a6z3j4w5t"></path><path d="M321.2 269.57L321.2 332.58" id="f1nXdMnRMZ"></path><path d="M348.08 265.73C345.68 260.07 340.09 256.28 333.81 256.28C325.26 256.28 318.3 263.24 318.3 271.78C318.3 277.64 318.3 324.44 318.3 330.29C318.3 343.13 333.03 350.29 343.13 342.67C345.12 341.17 346.73 339.19 347.8 336.96C363.78 337 372.65 318.74 363.36 306.23C368.97 299.76 368.27 289.81 361.61 284.23C363.44 275.19 357.03 266.69 348.08 265.73Z" id="h4xm2zLY3L"></path><path d="M294.31 265.73C285.36 266.69 278.96 275.2 280.79 284.23C274.12 289.81 273.43 299.77 279.04 306.23C269.74 318.75 278.62 336.96 294.54 336.96C294.73 336.96 295.74 340.01 299.26 342.67C306.19 347.89 316.09 346.43 321.2 339.3C321.2 334.19 321.2 308.69 321.2 262.78C306.39 257.39 297.43 258.37 294.31 265.73Z" id="c1GIV4tSs"></path><path d="M321.2 305.36C321.2 301.1 321.2 267.04 321.2 262.78C314.08 252.85 298.99 254.69 294.31 265.73C285.36 266.69 278.96 275.2 280.79 284.23C274.12 289.81 273.43 299.77 279.04 306.23C276.62 309.48 275.3 313.39 275.27 317.52C285.74 319.83 298.21 319.35 310.46 311.08C314.08 308.63 317.68 306.75 321.2 305.36Z" id="bVLA0QkY2"></path><path d="M363.36 306.23C368.97 299.76 368.27 289.81 361.61 284.23C363.44 275.19 357.03 266.69 348.08 265.73C345.68 260.07 340.09 256.28 333.81 256.28C325.26 256.28 318.3 263.24 318.3 271.79C318.3 275.27 318.3 303.13 318.3 306.61C337.79 297.49 355.47 303.7 366.16 311.62C365.53 309.69 364.58 307.88 363.36 306.23Z" id="e1VIbhMLeZ"></path><path d="M341.3 324.11C346.48 330.38 342.03 340 333.81 340C332.21 340 330.91 341.3 330.91 342.9C330.91 344.5 332.21 345.79 333.81 345.79C346.93 345.79 354.04 330.44 345.76 320.42C344.74 319.19 342.92 319.01 341.68 320.03C340.45 321.05 340.28 322.88 341.3 324.11Z" id="b1DI8oohD"></path><path d="M280.64 283.55C292.59 279.89 305.68 278.47 315.55 284.28C317.24 285.27 319.01 285.93 320.85 286.32C320.85 283.99 321.2 265.16 321.2 262.84C314.08 252.91 298.77 254.76 294.1 265.8C285.47 266.73 279.33 274.73 280.64 283.55Z" id="aj8Ya8jN2"></path><path d="M297.51 311.74C299.03 311.24 299.86 309.61 299.36 308.09C297.7 303 300.49 297.5 305.58 295.84C307.1 295.34 307.93 293.71 307.43 292.19C306.93 290.67 305.3 289.84 303.78 290.33C303.11 290.55 302.47 290.81 301.86 291.11C300.7 288.15 301.5 284.66 304.07 282.53C305.3 281.51 305.47 279.68 304.45 278.45C303.43 277.22 301.61 277.05 300.37 278.07C295.36 282.23 294.2 289.22 297.11 294.65C296.07 295.8 295.26 297.03 294.6 298.41C284.39 298.22 275.27 306.75 275.27 317.68C275.27 319.28 276.56 320.58 278.16 320.58C279.76 320.58 281.06 319.28 281.06 317.68C281.06 310.73 286.34 305 293.11 304.28C293.01 306.15 293.26 308.05 293.86 309.89C294.36 311.41 296 312.24 297.51 311.74Z" id="a15qppoA6y"></path><path d="M301.1 324.11C302.12 322.88 301.95 321.05 300.71 320.03C299.48 319.01 297.65 319.19 296.64 320.42C288.34 330.45 295.48 345.79 308.59 345.79C310.19 345.79 311.49 344.5 311.49 342.9C311.49 341.3 310.19 340 308.59 340C300.36 340 295.92 330.37 301.1 324.11Z" id="a1liBIz8U2"></path><path d="M318.3 271.78C318.3 273.12 318.3 283.79 318.3 285.12C330.21 289.84 345.74 280.53 357.79 270.63C355.31 267.95 351.9 266.14 348.08 265.73C345.68 260.07 340.09 256.28 333.81 256.28C325.26 256.28 318.3 263.24 318.3 271.78Z" id="f243W58DpH"></path><path d="M318.3 332.58C318.3 326.28 318.3 275.87 318.3 269.57C318.3 267.97 319.6 266.67 321.2 266.67C322.8 266.67 324.09 267.97 324.09 269.57C324.09 275.87 324.09 326.28 324.09 332.58C324.09 334.18 322.8 335.48 321.2 335.48C319.6 335.48 318.3 334.18 318.3 332.58Z" id="bjVo2PgRR"></path><path d="M345.28 294.65C348.2 289.22 347.04 282.23 342.02 278.07C340.79 277.05 338.96 277.22 337.94 278.45C336.92 279.68 337.09 281.51 338.32 282.53C340.9 284.66 341.69 288.15 340.54 291.11C339.92 290.81 339.28 290.55 338.62 290.33C337.1 289.84 335.46 290.67 334.97 292.19C334.47 293.71 335.3 295.34 336.82 295.84C341.91 297.5 344.7 303 343.03 308.09C342.42 309.96 343.82 311.88 345.79 311.88C347 311.88 348.14 311.11 348.54 309.89C349.14 308.05 349.38 306.15 349.29 304.28C356.05 305 361.34 310.73 361.34 317.68C361.34 319.28 362.63 320.58 364.23 320.58C365.83 320.58 367.13 319.28 367.13 317.68C367.13 307.05 358.48 298.41 347.85 298.41C347.68 298.41 347.24 296.81 345.28 294.65Z" id="duylouGiY"></path><path d="M365.53 160.82C380.47 148.37 389.93 129.45 389.93 108.53C389.93 69.68 357.56 37.81 317.72 39.8C282.36 41.3 253.47 71.18 252.48 106.54C251.98 128.45 261.44 147.87 276.88 160.82C285.35 167.79 291.32 176.76 294.31 186.72C297.93 186.72 316.03 186.72 348.6 186.72L348.04 186.72C354.39 174.1 360.22 165.47 365.53 160.82Z" id="a1VelWvU5P"></path><path d="M354.76 166.28C366.77 155.11 376.41 139.04 376.41 120.27C376.41 85.41 350.41 56.8 318.4 58.59C289.99 59.93 266.79 86.75 265.99 118.48C265.59 138.15 275.22 154.66 287.63 166.28C294.43 172.54 298.65 181.5 301.05 190.44C303.96 190.44 318.01 190.44 343.21 190.44L341.34 190.44C346.02 178.51 350.5 170.45 354.76 166.28Z" id="b2q2XR5Py6"></path><path d="M340.18 233.98C340.18 239.6 328.05 245.58 321.2 245.58C314.34 245.58 302.21 239.89 302.21 234.27C302.21 228.65 302.49 228.23 321.2 228.33C339.9 228.42 340.18 228.36 340.18 233.98Z" id="azbISmvIk"></path><path d="M319.2 190.37C307.25 145.84 300.61 121.11 299.28 116.16C299.78 116.16 300.28 116.16 300.78 116.16C303.27 116.16 305.76 115.16 307.75 113.17C308.74 112.18 309.74 111.68 311.23 111.68C312.73 111.68 313.72 112.18 314.72 113.17C318.21 117.16 324.18 117.16 327.67 113.17C328.67 112.18 329.66 111.68 331.16 111.68C332.15 111.68 333.65 112.18 334.64 113.17C336.64 115.16 338.63 116.16 341.62 116.16C342.11 116.16 342.61 116.16 343.11 116.16C341.81 121.11 335.34 145.84 323.69 190.37L328.17 190.37C340.42 143.75 347.23 117.85 348.59 112.67C348.59 111.68 348.59 110.68 347.59 110.18C346.6 109.69 345.6 110.18 345.1 110.68C344.11 111.68 343.11 112.18 342.11 112.18C340.62 112.18 339.62 111.68 338.13 110.68C336.14 108.69 334.14 107.69 331.65 107.69C329.16 107.69 327.17 108.69 325.18 110.68C323.19 112.67 320.2 112.67 318.21 110.68C316.71 108.69 314.22 107.69 311.73 107.69C311.73 107.69 311.73 107.69 311.73 107.69C309.24 107.69 306.75 108.69 305.26 110.68C304.26 111.68 302.77 112.18 301.27 112.18C300.28 112.18 298.78 111.68 298.29 110.68C297.79 110.18 296.79 109.69 295.8 110.18C294.8 110.68 294.3 111.68 294.8 112.67C296.13 117.85 302.77 143.75 314.72 190.37L319.2 190.37Z" id="cYUxYPxN"></path><path d="M303.02 235.79C298.04 235.79 294.05 231.6 294.05 226.36C294.05 223.71 294.05 210.44 294.05 186.56L348.34 186.56C348.34 210.44 348.34 223.71 348.34 226.36C348.34 231.6 344.35 235.79 339.37 235.79C332.1 235.79 306.65 235.79 303.02 235.79Z" id="b83Sr88IvV"></path><path d="M294.3 207.99C291.31 207.99 288.82 205.5 288.82 202.51C288.82 202.51 288.82 202.51 288.82 202.51C288.82 199.53 291.31 197.04 294.3 197.04C299.68 197.04 342.71 197.04 348.09 197.04C351.08 197.04 353.57 199.53 353.57 202.51C353.57 202.51 353.57 202.51 353.57 202.51C353.57 205.5 351.08 207.99 348.09 207.99C337.33 207.99 299.68 207.99 294.3 207.99Z" id="b1RZqFRSbI"></path><path d="M294.3 225.18C291.31 225.18 288.82 222.69 288.82 219.7C288.82 219.7 288.82 219.7 288.82 219.7C288.82 216.71 291.31 214.22 294.3 214.22C299.68 214.22 342.71 214.22 348.09 214.22C351.08 214.22 353.57 216.71 353.57 219.7C353.57 219.7 353.57 219.7 353.57 219.7C353.57 222.69 351.08 225.18 348.09 225.18C337.33 225.18 299.68 225.18 294.3 225.18Z" id="f2YKaAOh0Z"></path><path d="M316.22 11.77C316.22 13.46 316.22 27.01 316.22 28.7C316.22 31.19 318.21 33.68 321.2 33.68C324.18 33.68 326.18 31.69 326.18 28.7C326.18 27.01 326.18 13.46 326.18 11.77C326.18 8.78 323.69 6.79 321.2 6.79C318.71 6.79 316.22 8.78 316.22 11.77Z" id="b4veO1ZSo"></path><path d="M247.49 37.17C245.49 39.16 245.49 42.15 247.49 44.14C248.68 45.34 258.24 54.9 259.44 56.09C261.43 58.09 264.42 58.09 266.41 56.09C268.4 54.1 268.4 51.11 266.41 49.12C265.61 48.33 261.63 44.34 254.46 37.17C251.14 35.84 248.81 35.84 247.49 37.17Z" id="b2cvridwG"></path><path d="M222.09 105.9C219.6 105.9 217.11 107.89 217.11 110.88C217.11 110.88 217.11 110.88 217.11 110.88C217.11 113.37 219.1 115.86 222.09 115.86C223.78 115.86 237.33 115.86 239.02 115.86C241.51 115.86 244 113.87 244 110.88C244 110.88 244 110.88 244 110.88C244 108.39 241.51 105.9 239.02 105.9C235.63 105.9 223.78 105.9 222.09 105.9Z" id="c2bAKqD3oo"></path><path d="M247.49 177.61C245.49 179.61 245.49 182.59 247.49 184.59C249.48 186.58 252.47 186.58 254.46 184.59C255.65 183.39 265.22 173.83 266.41 172.63C268.4 170.64 268.4 167.65 266.41 165.66C264.42 163.67 261.43 163.67 259.44 165.66C257.05 168.05 248.68 176.42 247.49 177.61Z" id="b5wM1rdwI"></path><path d="M375.98 165.66C373.99 167.65 373.99 170.64 375.98 172.63C377.18 173.83 386.74 183.39 387.93 184.59C389.92 186.58 392.91 186.58 394.91 184.59C396.9 182.59 396.9 179.6 394.91 177.61C394.11 176.82 390.12 172.83 382.95 165.66C379.63 164.33 377.31 164.33 375.98 165.66Z" id="dEKU1WhUh"></path><path d="M403.37 105.9C400.88 105.9 398.39 107.89 398.39 110.88C398.39 110.88 398.39 110.88 398.39 110.88C398.39 113.37 400.38 115.86 403.37 115.86C405.07 115.86 418.61 115.86 420.31 115.86C422.8 115.86 425.29 113.87 425.29 110.88C425.29 110.88 425.29 110.88 425.29 110.88C425.29 108.39 423.29 105.9 420.31 105.9C416.92 105.9 405.07 105.9 403.37 105.9Z" id="agMcNHUm2"></path><path d="M375.98 49.12C373.99 51.11 373.99 54.1 375.98 56.09C377.97 58.09 380.96 58.09 382.95 56.09C384.15 54.9 393.71 45.34 394.91 44.14C396.9 42.15 396.9 39.16 394.91 37.17C392.91 35.18 389.92 35.18 387.93 37.17C385.54 39.56 377.18 47.93 375.98 49.12Z" id="a7VDfk9pb"></path><path d="" id="b21MDyqNXG"></path></defs><g><g><g><use xlink:href="#b2dmMFYsl5" opacity="1" fill="#ffffff" fill-opacity="1"></use></g><g><use xlink:href="#cvykUj0KJ" opacity="1" fill="#00407d" fill-opacity="1"></use><g><use xlink:href="#cvykUj0KJ" opacity="1" fill-opacity="0" stroke="#000000" stroke-width="1" stroke-opacity="0"></use></g></g><g><use xlink:href="#avWdPVTmG" opacity="1" fill="#efefef" fill-opacity="1"></use><g><use xlink:href="#avWdPVTmG" opacity="1" fill-opacity="0" stroke="#000000" stroke-width="1" stroke-opacity="0"></use></g></g><g><use xlink:href="#anF7fqr6H" opacity="1" fill="#bcbcbc" fill-opacity="1"></use><g><use xlink:href="#anF7fqr6H" opacity="1" fill-opacity="0" stroke="#000000" stroke-width="1" stroke-opacity="0"></use></g></g><g><use xlink:href="#c1yx1owdEE" opacity="1" fill="#efefef" fill-opacity="1"></use><g><use xlink:href="#c1yx1owdEE" opacity="1" fill-opacity="0" stroke="#000000" stroke-width="1" stroke-opacity="0"></use></g></g><g><use xlink:href="#cEoS8jzgt" opacity="1" fill="#efefef" fill-opacity="1"></use></g><g><g><use xlink:href="#a4aecl6jw5" opacity="1" fill="#643513" fill-opacity="1"></use><g><use xlink:href="#a4aecl6jw5" opacity="1" fill-opacity="0" stroke="#000000" stroke-width="1" stroke-opacity="0"></use></g></g><g><use xlink:href="#c4twDy0S9" opacity="1" fill="#d9ac80" fill-opacity="1"></use><g><use xlink:href="#c4twDy0S9" opacity="1" fill-opacity="0" stroke="#000000" stroke-width="1" stroke-opacity="0"></use></g></g><g><use xlink:href="#an2kqRysf" opacity="1" fill="#d9ac80" fill-opacity="1"></use><g><use xlink:href="#an2kqRysf" opacity="1" fill-opacity="0" stroke="#000000" stroke-width="1" stroke-opacity="0"></use></g></g><g><use xlink:href="#aZPX5PYtP" opacity="1" fill="#8d5122" fill-opacity="1"></use><g><use xlink:href="#aZPX5PYtP" opacity="1" fill-opacity="0" stroke="#000000" stroke-width="1" stroke-opacity="0"></use></g></g><g><use xlink:href="#crgTOzoS0" opacity="1" fill="#77411b" fill-opacity="1"></use><g><use xlink:href="#crgTOzoS0" opacity="1" fill-opacity="0" stroke="#000000" stroke-width="1" stroke-opacity="0"></use></g></g></g><g><g><use xlink:href="#aJoJHhmaH" opacity="1" fill="#ae834f" fill-opacity="1"></use><g><use xlink:href="#aJoJHhmaH" opacity="1" fill-opacity="0" stroke="#000000" stroke-width="1" stroke-opacity="0"></use></g></g><g><use xlink:href="#b16NdhdPfs" opacity="1" fill="#d9ac80" fill-opacity="1"></use><g><use xlink:href="#b16NdhdPfs" opacity="1" fill-opacity="0" stroke="#000000" stroke-width="1" stroke-opacity="0"></use></g></g><g><use xlink:href="#c2WokGybHk" opacity="1" fill="#926e43" fill-opacity="1"></use><g><use xlink:href="#c2WokGybHk" opacity="1" fill-opacity="0" stroke="#000000" stroke-width="1" stroke-opacity="0"></use></g></g><g><use xlink:href="#a6z3j4w5t" opacity="1" fill="#d9ac80" fill-opacity="1"></use><g><use xlink:href="#a6z3j4w5t" opacity="1" fill-opacity="0" stroke="#000000" stroke-width="1" stroke-opacity="0"></use></g></g></g><g><g><use xlink:href="#f1nXdMnRMZ" opacity="1" fill="#cc7282" fill-opacity="1"></use><g><use xlink:href="#f1nXdMnRMZ" opacity="1" fill-opacity="0" stroke="#000000" stroke-width="1" stroke-opacity="0"></use></g></g><g><g><use xlink:href="#h4xm2zLY3L" opacity="1" fill="#d87d88" fill-opacity="1"></use><g><use xlink:href="#h4xm2zLY3L" opacity="1" fill-opacity="0" stroke="#000000" stroke-width="1" stroke-opacity="0"></use></g></g><g><use xlink:href="#c1GIV4tSs" opacity="1" fill="#d87d88" fill-opacity="1"></use><g><use xlink:href="#c1GIV4tSs" opacity="1" fill-opacity="0" stroke="#000000" stroke-width="1" stroke-opacity="0"></use></g></g><g><use xlink:href="#bVLA0QkY2" opacity="1" fill="#fc93a0" fill-opacity="1"></use><g><use xlink:href="#bVLA0QkY2" opacity="1" fill-opacity="0" stroke="#000000" stroke-width="1" stroke-opacity="0"></use></g></g><g><use xlink:href="#e1VIbhMLeZ" opacity="1" fill="#fc93a0" fill-opacity="1"></use><g><use xlink:href="#e1VIbhMLeZ" opacity="1" fill-opacity="0" stroke="#000000" stroke-width="1" stroke-opacity="0"></use></g></g><g><use xlink:href="#b1DI8oohD" opacity="1" fill="#c04f63" fill-opacity="1"></use><g><use xlink:href="#b1DI8oohD" opacity="1" fill-opacity="0" stroke="#000000" stroke-width="1" stroke-opacity="0"></use></g></g><g><use xlink:href="#aj8Ya8jN2" opacity="1" fill="#fcc3ce" fill-opacity="1"></use><g><use xlink:href="#aj8Ya8jN2" opacity="1" fill-opacity="0" stroke="#000000" stroke-width="1" stroke-opacity="0"></use></g></g><g><use xlink:href="#a15qppoA6y" opacity="1" fill="#c04f63" fill-opacity="1"></use><g><use xlink:href="#a15qppoA6y" opacity="1" fill-opacity="0" stroke="#000000" stroke-width="1" stroke-opacity="0"></use></g></g><g><use xlink:href="#a1liBIz8U2" opacity="1" fill="#c04f63" fill-opacity="1"></use><g><use xlink:href="#a1liBIz8U2" opacity="1" fill-opacity="0" stroke="#000000" stroke-width="1" stroke-opacity="0"></use></g></g><g><use xlink:href="#f243W58DpH" opacity="1" fill="#fcc3ce" fill-opacity="1"></use><g><use xlink:href="#f243W58DpH" opacity="1" fill-opacity="0" stroke="#000000" stroke-width="1" stroke-opacity="0"></use></g></g><g><use xlink:href="#bjVo2PgRR" opacity="1" fill="#c04f63" fill-opacity="1"></use><g><use xlink:href="#bjVo2PgRR" opacity="1" fill-opacity="0" stroke="#000000" stroke-width="1" stroke-opacity="0"></use></g></g><g><use xlink:href="#duylouGiY" opacity="1" fill="#c04f63" fill-opacity="1"></use><g><use xlink:href="#duylouGiY" opacity="1" fill-opacity="0" stroke="#000000" stroke-width="1" stroke-opacity="0"></use></g></g></g></g><g><g><use xlink:href="#a1VelWvU5P" opacity="1" fill="#ffd15c" fill-opacity="1"></use><g><use xlink:href="#a1VelWvU5P" opacity="1" fill-opacity="0" stroke="#000000" stroke-width="1" stroke-opacity="0"></use></g></g><g><use xlink:href="#b2q2XR5Py6" opacity="1" fill="#f8ac3d" fill-opacity="1"></use><g><use xlink:href="#b2q2XR5Py6" opacity="1" fill-opacity="0" stroke="#000000" stroke-width="1" stroke-opacity="0"></use></g></g><g><use xlink:href="#azbISmvIk" opacity="1" fill="#bcbcbc" fill-opacity="1"></use></g><g><use xlink:href="#cYUxYPxN" opacity="1" fill="#ffffff" fill-opacity="1"></use><g><use xlink:href="#cYUxYPxN" opacity="1" fill-opacity="0" stroke="#000000" stroke-width="1" stroke-opacity="0"></use></g></g><g><use xlink:href="#b83Sr88IvV" opacity="1" fill="#efefef" fill-opacity="1"></use><g><use xlink:href="#b83Sr88IvV" opacity="1" fill-opacity="0" stroke="#000000" stroke-width="1" stroke-opacity="0"></use></g></g><g><use xlink:href="#b1RZqFRSbI" opacity="1" fill="#bcbcbc" fill-opacity="1"></use><g><use xlink:href="#b1RZqFRSbI" opacity="1" fill-opacity="0" stroke="#000000" stroke-width="1" stroke-opacity="0"></use></g></g><g><use xlink:href="#f2YKaAOh0Z" opacity="1" fill="#bcbcbc" fill-opacity="1"></use><g><use xlink:href="#f2YKaAOh0Z" opacity="1" fill-opacity="0" stroke="#000000" stroke-width="1" stroke-opacity="0"></use></g></g><g><use xlink:href="#b4veO1ZSo" opacity="1" fill="#ffd15c" fill-opacity="1"></use><g><use xlink:href="#b4veO1ZSo" opacity="1" fill-opacity="0" stroke="#000000" stroke-width="1" stroke-opacity="0"></use></g></g><g><use xlink:href="#b2cvridwG" opacity="1" fill="#ffd15c" fill-opacity="1"></use><g><use xlink:href="#b2cvridwG" opacity="1" fill-opacity="0" stroke="#000000" stroke-width="1" stroke-opacity="0"></use></g></g><g><use xlink:href="#c2bAKqD3oo" opacity="1" fill="#ffd15c" fill-opacity="1"></use><g><use xlink:href="#c2bAKqD3oo" opacity="1" fill-opacity="0" stroke="#000000" stroke-width="1" stroke-opacity="0"></use></g></g><g><use xlink:href="#b5wM1rdwI" opacity="1" fill="#ffd15c" fill-opacity="1"></use><g><use xlink:href="#b5wM1rdwI" opacity="1" fill-opacity="0" stroke="#000000" stroke-width="1" stroke-opacity="0"></use></g></g><g><use xlink:href="#dEKU1WhUh" opacity="1" fill="#ffd15c" fill-opacity="1"></use><g><use xlink:href="#dEKU1WhUh" opacity="1" fill-opacity="0" stroke="#000000" stroke-width="1" stroke-opacity="0"></use></g></g><g><use xlink:href="#agMcNHUm2" opacity="1" fill="#ffd15c" fill-opacity="1"></use><g><use xlink:href="#agMcNHUm2" opacity="1" fill-opacity="0" stroke="#000000" stroke-width="1" stroke-opacity="0"></use></g></g><g><use xlink:href="#a7VDfk9pb" opacity="1" fill="#ffd15c" fill-opacity="1"></use><g><use xlink:href="#a7VDfk9pb" opacity="1" fill-opacity="0" stroke="#000000" stroke-width="1" stroke-opacity="0"></use></g></g><g><g><use xlink:href="#b21MDyqNXG" opacity="1" fill-opacity="0" stroke="#000000" stroke-width="2" stroke-opacity="0"></use></g></g></g></g></g></svg>